<svg xmlns="http://www.w3.org/2000/svg" width="1254" height="1254" viewBox="0 0 1254 1254" fill="#121826">
  <path d="M 267.404 253.994 C 249.764 255.919, 234.342 263.337, 221.136 276.251 C 199.155 297.745, 191.932 327.761, 201.705 357 C 210.370 382.928, 234.317 403.673, 261.780 409.044 C 270.017 410.655, 289.845 409.772, 296.211 407.512 C 298.802 406.591, 301.525 405.987, 302.261 406.169 C 302.997 406.351, 319.930 425.175, 339.891 448 C 359.851 470.825, 386.423 501.200, 398.939 515.500 C 411.455 529.800, 424.399 544.650, 427.704 548.500 C 431.009 552.350, 443.270 566.525, 454.950 580 C 466.630 593.475, 479.857 608.742, 484.343 613.927 C 488.829 619.111, 502.400 634.672, 514.500 648.507 C 526.600 662.341, 548.200 687.103, 562.500 703.532 C 576.800 719.962, 597.814 744.098, 609.198 757.169 C 631.388 782.645, 631.569 782.943, 631.350 793.693 C 631.176 802.191, 630.161 806, 628.070 806 C 626.912 806, 618.349 796.913, 604.965 781.483 L 583.699 756.966 581.982 759.789 C 579.148 764.449, 576.064 771.963, 574.487 778.052 C 573.324 782.540, 573 790.663, 573 815.361 L 573 846.934 566.429 854.217 C 538.468 885.209, 536.493 927.501, 561.489 959.985 C 576.865 979.968, 600.941 991.873, 626.162 991.965 C 638.275 992.009, 648.807 990.028, 658.201 985.937 C 689.802 972.178, 709 943.471, 709 909.978 C 709 897.640, 707.674 890.940, 702.798 878.632 C 699.447 870.175, 690.943 857.368, 685.446 852.500 L 682.058 849.500 681.732 808.500 L 681.406 767.500 678.636 759.515 C 673.164 743.737, 673.248 743.848, 626.497 691 C 617.608 680.951, 578.937 636.846, 537.128 589.071 C 526.333 576.735, 514.503 563.235, 510.841 559.071 C 499.275 545.922, 466.129 508.071, 453.066 493.094 C 446.155 485.170, 429.965 466.720, 417.089 452.094 C 404.213 437.467, 390.942 422.350, 387.598 418.500 C 384.253 414.650, 381.063 411.012, 380.508 410.415 C 379.616 409.455, 371.700 400.409, 366.674 394.608 C 365.670 393.448, 363.641 391.150, 362.164 389.500 C 350.570 376.543, 345 369.801, 345 368.725 C 345 368.030, 346.347 364.257, 347.993 360.339 C 349.639 356.421, 351.723 348.852, 352.624 343.519 L 354.262 333.822 353.146 324.004 C 350.746 302.904, 340.548 284.096, 324.403 270.997 C 308.455 258.058, 287.488 251.804, 267.404 253.994 M 971 254.049 C 943.870 257.152, 918.590 275.924, 908.012 300.823 C 902.965 312.703, 901.637 319.405, 901.636 333 L 901.635 345.500 905.404 356 C 907.477 361.775, 909.383 367.625, 909.640 369 L 910.106 371.500 901.803 381.120 C 897.236 386.411, 888.775 396.298, 883 403.091 C 877.225 409.883, 870.250 417.953, 867.500 421.024 C 864.750 424.095, 856.364 433.783, 848.864 442.554 C 830.537 463.985, 816.066 480.856, 812.884 484.502 C 811.445 486.151, 804.245 494.483, 796.884 503.018 C 789.523 511.553, 779.450 523.231, 774.500 528.970 C 769.550 534.708, 764.150 541.057, 762.500 543.078 C 760.850 545.099, 754.076 552.996, 747.447 560.626 C 740.818 568.257, 728.471 582.600, 720.008 592.500 C 711.546 602.400, 701.756 613.817, 698.253 617.870 C 694.750 621.924, 685.722 632.458, 678.192 641.278 C 670.661 650.099, 659.663 662.900, 653.750 669.725 C 647.837 676.550, 643 682.724, 643 683.445 C 643 684.165, 643.735 685.366, 644.634 686.112 C 645.533 686.858, 653.581 695.871, 662.518 706.140 L 678.768 724.813 689.298 712.656 C 695.090 705.970, 706.917 692.175, 715.580 682 C 724.243 671.825, 732.944 661.671, 734.916 659.436 C 736.887 657.201, 743 650.038, 748.500 643.518 C 754 636.998, 764.591 624.651, 772.035 616.081 C 785.606 600.458, 878.885 491.780, 884.480 485.073 C 886.119 483.108, 891.969 476.293, 897.480 469.928 C 902.991 463.564, 912 453.028, 917.500 446.516 C 923 440.004, 927.955 434.187, 928.512 433.588 C 929.425 432.605, 950.939 407.068, 951.677 406.090 C 951.847 405.865, 955.948 406.653, 960.791 407.840 C 982.753 413.227, 1005.993 408.744, 1024.474 395.556 C 1030.879 390.986, 1041.900 379.714, 1044.504 375.072 C 1049.302 366.518, 1053.403 356.785, 1055.195 349.702 L 1057.250 341.574 1056.745 329.037 C 1056.148 314.223, 1053.293 303.923, 1046.667 292.678 C 1038.537 278.882, 1022.915 265.023, 1009.115 259.365 C 998.059 254.831, 982.788 252.701, 971 254.049 M 266 300.878 C 257.034 303.820, 249.519 310.466, 245.647 318.878 C 244.010 322.434, 243.517 325.460, 243.510 332 L 243.500 340.500 246.443 346.308 C 251.799 356.880, 260.243 362.451, 272.657 363.605 C 286.261 364.869, 298.076 358.656, 303.649 347.307 L 306.500 341.500 306.848 332.803 L 307.195 324.106 304.712 318.683 C 299.071 306.361, 290.619 300.763, 277 300.329 C 272.325 300.180, 267.375 300.427, 266 300.878 M 970 300.935 C 961.274 303.599, 954.753 309.269, 950.405 317.972 L 947.672 323.444 947.646 331.972 C 947.627 338.512, 948.103 341.549, 949.687 345 C 952.778 351.731, 958.366 357.543, 964.750 360.666 L 970.449 363.455 979.475 363.404 C 989.439 363.349, 993.643 362.035, 1000.019 356.985 C 1007.910 350.735, 1012.947 337.165, 1011.154 326.987 C 1008.201 310.222, 995.912 299.872, 979.212 300.086 C 975.521 300.133, 971.375 300.515, 970 300.935 M 610.472 405.525 C 596.450 408.607, 582.588 415.665, 570.875 425.687 C 564.973 430.737, 513.977 487.628, 499.293 505.544 L 495.159 510.588 504.329 521.139 C 509.373 526.942, 516.735 535.490, 520.689 540.134 C 524.643 544.779, 528.718 549.339, 529.744 550.268 L 531.611 551.958 540.055 542.246 C 560.010 519.297, 596.343 478.769, 602.234 472.887 C 617.817 457.328, 632.102 455.966, 647.127 468.607 C 649.672 470.748, 658.683 480.600, 667.152 490.500 C 693.132 520.871, 724.457 556.623, 725.284 556.847 C 725.716 556.963, 731.739 550.408, 738.670 542.279 C 745.600 534.151, 753.572 524.858, 756.385 521.629 C 759.198 518.400, 761.645 515.376, 761.823 514.910 C 762 514.444, 757.730 508.987, 752.333 502.782 C 746.937 496.577, 741.559 490.375, 740.383 489 C 722.674 468.291, 692.215 434.050, 687.107 429.107 C 675.064 417.454, 660.165 409.310, 644 405.544 C 636.076 403.698, 618.832 403.688, 610.472 405.525 M 242.672 485.381 C 233.543 487.932, 223.720 497.316, 221.130 505.962 C 220.319 508.667, 220 541.625, 220 622.656 L 220 735.580 221.506 741.540 C 222.334 744.818, 225.100 751.756, 227.652 756.957 L 232.292 766.414 239.922 773.957 C 248.867 782.801, 255.700 787.069, 267.739 791.334 L 276.500 794.438 290 794.468 L 303.500 794.498 312.261 791.364 C 326.962 786.106, 339.500 777.309, 349.792 765.032 C 352.931 761.287, 365.162 747.035, 376.972 733.362 C 388.782 719.688, 412.142 692.525, 428.884 673 C 445.627 653.475, 461.277 635.314, 463.663 632.642 C 466.048 629.970, 467.992 627.495, 467.983 627.142 C 467.974 626.789, 466.061 624.420, 463.733 621.878 C 461.405 619.336, 457.429 614.836, 454.898 611.878 C 448.452 604.345, 434.020 587.762, 432.544 586.193 L 431.315 584.887 407.908 611.689 C 395.033 626.431, 376.239 647.944, 366.141 659.496 C 347.454 680.875, 339.487 689.992, 318.508 714 C 312.019 721.425, 305.448 728.318, 303.904 729.317 C 302.361 730.317, 298.713 731.360, 295.799 731.635 C 289.345 732.244, 284.492 729.954, 281.500 724.887 L 279.500 721.500 279 614.500 L 278.500 507.500 276.363 502.878 C 270.159 489.462, 255.435 481.815, 242.672 485.381 M 1000.383 484.899 C 990.358 487.454, 980.393 496.212, 977.535 504.977 L 976.061 509.500 975.753 614.500 L 975.446 719.500 973.473 723.435 C 969.659 731.043, 961.946 733.779, 953.455 730.536 L 948.926 728.806 916.886 692.153 C 899.265 671.994, 883.833 654.375, 882.593 653 C 878.803 648.796, 844.791 609.716, 840 604.060 C 837.525 601.138, 833.867 596.892, 831.872 594.624 C 829.876 592.356, 827.176 589.251, 825.872 587.725 L 823.500 584.950 816.012 593.586 C 811.894 598.336, 807.619 603.208, 806.512 604.413 C 805.405 605.618, 802.700 608.804, 800.500 611.494 C 798.300 614.183, 794.362 618.777, 791.750 621.702 C 789.138 624.628, 787 627.272, 787 627.578 C 787 628.135, 790.983 632.856, 805 648.913 C 821.994 668.380, 824.784 671.604, 831 678.965 C 848.666 699.882, 898.513 757.663, 906.350 766.309 C 911.241 771.704, 918.364 778.310, 922.180 780.990 C 950.683 801.007, 987.675 799.095, 1012.684 776.312 C 1023.190 766.740, 1031.513 751.351, 1033.974 736.947 C 1034.743 732.446, 1034.989 696.852, 1034.788 619 L 1034.500 507.500 1031.536 501.645 C 1025.429 489.579, 1011.466 482.073, 1000.383 484.899 M 614.257 879.071 C 607.167 881.861, 598.865 889.620, 595.897 896.230 L 593.531 901.500 593.525 910.500 L 593.518 919.500 596.293 924.784 C 602.209 936.049, 611.181 941.859, 624.023 942.739 C 638.811 943.753, 649.707 937.900, 656 925.563 L 659.500 918.702 659.500 909.601 L 659.500 900.500 657.161 895.750 C 654.061 889.455, 647.628 882.974, 641.484 879.958 C 634.515 876.536, 621.756 876.120, 614.257 879.071" fill-rule="evenodd"/>
</svg>
